<svg height="512" viewBox="0 0 64 64" width="512" xmlns="http://www.w3.org/2000/svg"><g id="Project-Sandglass-Report-File-Analysis"><path d="m58.707 10.293-8-8a1 1 0 0 0 -.707-.293h-32a5.006 5.006 0 0 0 -5 5v12h2v-12a3 3 0 0 1 3-3h31v5a3 3 0 0 0 3 3h5v45a3 3 0 0 1 -3 3h-36a3 3 0 0 1 -3-3v-12h-2v12a5.006 5.006 0 0 0 5 5h36a5.006 5.006 0 0 0 5-5v-46a1 1 0 0 0 -.293-.707zm-7.707-1.293v-3.586l4.586 4.586h-3.586a1 1 0 0 1 -1-1z"/><path d="m19 8h2v2h-2z"/><path d="m23 8h6v2h-6z"/><path d="m19 12h10v2h-10z"/><path d="m35 43a3 3 0 0 0 -6 0 2.972 2.972 0 0 0 .224 1.126l-4.783 4.259a2.961 2.961 0 0 0 -1.441-.385 3 3 0 1 0 3 3 2.972 2.972 0 0 0 -.224-1.126l4.783-4.259a2.925 2.925 0 0 0 3.433-.389l6.056 3.3a2.925 2.925 0 0 0 -.048.474 3 3 0 0 0 6 0 2.969 2.969 0 0 0 -.694-1.9l3.094-5.161a2.964 2.964 0 0 0 .6.061 3 3 0 1 0 -3-3 2.969 2.969 0 0 0 .694 1.9l-3.094 5.161a2.957 2.957 0 0 0 -2.592.713l-6.056-3.3a2.925 2.925 0 0 0 .048-.474zm-12 9a1 1 0 1 1 1-1 1 1 0 0 1 -1 1zm9-8a1 1 0 1 1 1-1 1 1 0 0 1 -1 1zm17-6a1 1 0 1 1 -1 1 1 1 0 0 1 1-1zm-6 10a1 1 0 1 1 -1 1 1 1 0 0 1 1-1z"/><path d="m41 20h12v2h-12z"/><path d="m23 20h16v2h-16z"/><path d="m41 24h12v2h-12z"/><path d="m23 24h16v2h-16z"/><path d="m41 28h12v2h-12z"/><path d="m23 28h16v2h-16z"/><path d="m41 32h12v2h-12z"/><path d="m23 32h16v2h-16z"/><path d="m19.549 26.914a2 2 0 0 0 1.451-1.914v-2a2 2 0 0 0 -2-2h-12a2 2 0 0 0 -2 2v2a2 2 0 0 0 1.451 1.914l3.549 4.437v1.3l-3.549 4.435a2 2 0 0 0 -1.451 1.914v2a2 2 0 0 0 2 2h12a2 2 0 0 0 2-2v-2a2 2 0 0 0 -1.451-1.914l-3.549-4.437v-1.3zm-12.549-3.914h12v2h-12zm0 18v-2h12v2zm7.438-7.1 2.482 3.1h-7.84l2.481-3.1a2 2 0 0 0 .439-1.251v-1.3a2 2 0 0 0 -.438-1.249l-2.482-3.1h7.84l-2.481 3.1a2 2 0 0 0 -.439 1.251v1.3a2 2 0 0 0 .438 1.249z"/></g></svg>