<?xml version="1.0" encoding="utf-8"?>
<!-- Generator: Adobe Illustrator 24.2.0, SVG Export Plug-In . SVG Version: 6.00 Build 0)  -->
<svg version="1.1" id="Layer_1" xmlns="http://www.w3.org/2000/svg" xmlns:xlink="http://www.w3.org/1999/xlink" x="0px" y="0px"
	 viewBox="0 0 512 512" style="enable-background:new 0 0 512 512;" xml:space="preserve">
<style type="text/css">
	.st0{fill:#FFFFFF;}
</style>
<g>
	<g>
		<path class="st0" d="M511.1,241.4c-0.2-0.5-0.4-1-0.7-1.5c-0.5-0.9-1.2-1.6-1.9-2.3c-0.3-0.3-0.4-0.7-0.8-0.9
			c-0.1-0.1-0.4-0.1-0.5-0.2c-0.2-0.1-0.3-0.3-0.5-0.4l-47.9-27.4c6.4-6.2,10.6-14.5,10.6-23.9c0-12.7-7.1-24.2-18.5-30l-78.2-39.1
			l9.1-22.7l6.1-3.1c3.2,1.9,6.8,3,10.7,3c1.9,0,3.9-0.3,5.9-0.8l82.2-23.5C501.6,64.3,512,50.5,512,35c0-19.3-15.7-35-35-35h-9.8
			c-7.9,0-15.7,2.7-21.9,7.7l-59.8,47.9c-4.9,4-7.4,9.7-7.6,15.6l-9.4,4.7c-2.3,1.2-4.2,3.2-5.1,5.6l-9.9,24.8l-29.8-14.9
			c-22.8-11.4-51.9-5.2-68.2,14.3l-90.9,109.1L7.9,256.4c-0.6,0.2-1,0.5-1.6,0.8c-0.3,0.1-0.7,0.1-1,0.3c-0.2,0.1-0.3,0.3-0.4,0.4
			c-1.3,0.9-2.5,2-3.3,3.3c-0.1,0.1-0.1,0.3-0.2,0.4c-0.7,1.3-1.1,2.8-1.2,4.3c0,0.2-0.2,0.4-0.2,0.7V416c0,3.8,2,7.4,5.4,9.3
			l149.3,85.3c1.6,0.9,3.5,1.4,5.3,1.4c1,0,2.1-0.1,3.2-0.5l341.3-106.7c4.5-1.4,7.5-5.5,7.5-10.2V245.3c0-0.4-0.2-0.7-0.2-1
			C511.7,243.3,511.4,242.3,511.1,241.4z M458.7,24.3c2.4-1.9,5.4-3,8.5-3h9.8c7.5,0,13.7,6.1,13.7,13.7c0,6.1-4.1,11.5-9.9,13.1
			L404.2,70c0,0,0-0.1,0-0.1c-0.2-0.5-0.7-0.8-1-1.2L458.7,24.3z M271.9,119.2c6.6-7.9,16.4-12.5,26.7-12.5c5.4,0,10.7,1.3,15.6,3.6
			l31.3,15.7l-2.2,5.4l-103.6,62.2c-5,3-6.7,9.6-3.6,14.6c2,3.3,5.5,5.2,9.2,5.2c1.9,0,3.8-0.5,5.5-1.5l106.7-64
			c2-1.2,3.5-3,4.4-5.2l2.8-7l76.6,38.3c4.1,2.1,6.7,6.3,6.7,11c0,5.6-3.8,10.4-9.2,11.8l-5.2,1.3c0,0-0.1,0-0.1,0l-287.1,71.8
			L271.9,119.2z M149.3,482.9l-128-73.1V285.1l128,73.1V482.9z M161.3,340.4L38.5,270.3L141,243l-31.9,38.2
			c-2.9,3.6-3.3,8.6-0.8,12.5c2,3.2,5.4,5,9,5c0.9,0,1.7-0.1,2.6-0.3l35.8-9l30.7,18.5c1.7,1,3.6,1.5,5.5,1.5c3.6,0,7.1-1.8,9.2-5.2
			c3-5.1,1.4-11.6-3.6-14.6L185,282l41-10.2l24.5,14.7c1.7,1,3.6,1.5,5.5,1.5c3.6,0,7.1-1.8,9.2-5.2c3-5.1,1.4-11.6-3.6-14.6
			l-6.2-3.7l41-10.3l18.2,10.9c1.7,1,3.6,1.5,5.5,1.5c3.6,0,7.1-1.8,9.2-5.2c3-5,1.4-11.5-3.6-14.6l41-10.3l11.9,7.1
			c1.7,1,3.6,1.5,5.5,1.5c3.6,0,7.1-1.8,9.2-5.2c1.9-3.2,1.8-7,0.2-10.2l41.5-10.4l40,22.8L161.3,340.4z M490.7,386.8l-320,100v-127
			l320-100V386.8z"/>
	</g>
</g>
</svg>
