<?xml version="1.0" encoding="utf-8"?>
<!-- Generator: Adobe Illustrator 24.2.0, SVG Export Plug-In . SVG Version: 6.00 Build 0)  -->
<svg version="1.1" id="Layer_1" xmlns="http://www.w3.org/2000/svg" xmlns:xlink="http://www.w3.org/1999/xlink" x="0px" y="0px"
	 viewBox="0 0 512 512" style="enable-background:new 0 0 512 512;" xml:space="preserve">
<style type="text/css">
	.st0{fill:#FFFFFF;}
</style>
<path class="st0" d="M410.5,94.4l-53.3-53.3c-1.3-1.3-3.1-2.1-4.9-2.1H106.4c-3.9,0-7,3.1-7,7v420c0,3.9,3.1,7,7,7h299.2
	c3.9,0,7-3.1,7-7V99.3C412.6,97.5,411.9,95.7,410.5,94.4L410.5,94.4z M359.2,62.9l29.4,29.4h-29.4V62.9z M113.4,459V53h231.8v46.3
	c0,3.9,3.1,7,7,7h46.3V459H113.4z"/>
<path class="st0" d="M362.5,295.3h-213c-3.9,0-7,3.1-7,7s3.1,7,7,7h213c3.9,0,7-3.1,7-7S366.3,295.3,362.5,295.3z"/>
<path class="st0" d="M149.5,346.5H256c3.9,0,7-3.1,7-7s-3.1-7-7-7H149.5c-3.9,0-7,3.1-7,7S145.7,346.5,149.5,346.5z"/>
<path class="st0" d="M362.5,369.7h-213c-3.9,0-7,3.1-7,7s3.1,7,7,7h213c3.9,0,7-3.1,7-7S366.3,369.7,362.5,369.7z"/>
<path class="st0" d="M256,406.9H149.5c-3.9,0-7,3.1-7,7s3.1,7,7,7H256c3.9,0,7-3.1,7-7S259.9,406.9,256,406.9z"/>
<path class="st0" d="M245,251.2c15.3,20.7,44.5,25.1,65.3,9.8c20.7-15.3,25.1-44.5,9.8-65.3c-2.8-3.8-6.2-7.2-10-10V88.2
	c0-3.9-3.1-7-7-7H147c-3.9,0-7,3.1-7,7v156c0,3.9,3.1,7,7,7L245,251.2z M282.5,256.1c-18.1,0-32.7-14.7-32.7-32.7
	c0-18.1,14.7-32.7,32.7-32.7c18.1,0,32.7,14.7,32.7,32.7c0,0,0,0,0,0C315.2,241.5,300.6,256.1,282.5,256.1L282.5,256.1z M238,95.2
	v30.4l-8.6-6.9c-2.6-2-6.2-2-8.7,0l-8.6,6.9V95.2H238z M154,95.2h44v45c0,3.9,3.1,7,7,7c1.6,0,3.1-0.5,4.4-1.5l15.6-12.5l15.6,12.5
	c3,2.4,7.4,1.9,9.8-1.1c1-1.2,1.5-2.8,1.5-4.4v-45h44v83.5c-24.7-7.5-50.8,6.5-58.3,31.2c-2.7,8.9-2.7,18.4,0.1,27.3H154V95.2z"/>
<path class="st0" d="M293,209.1l-16.2,17.7l-5.6-4.4c-3-2.4-7.4-1.9-9.8,1.2c-2.4,3-1.9,7.4,1.2,9.8l10.7,8.4c2.9,2.3,7,1.9,9.5-0.8
	l20.5-22.5c2.6-2.9,2.3-7.3-0.6-9.9C299.9,206.2,295.6,206.3,293,209.1L293,209.1z"/>
</svg>
