<?xml version="1.0" encoding="utf-8"?>
<!-- Generator: Adobe Illustrator 24.2.0, SVG Export Plug-In . SVG Version: 6.00 Build 0)  -->
<svg version="1.1" id="Layer_1" xmlns="http://www.w3.org/2000/svg" xmlns:xlink="http://www.w3.org/1999/xlink" x="0px" y="0px"
	 viewBox="0 0 512 512" style="enable-background:new 0 0 512 512;" xml:space="preserve">
<style type="text/css">
	.st0{fill:#FFFFFF;}
</style>
<g id="Project-Sandglass-Report-File-Analysis">
	<path class="st0" d="M469.7,82.3l-64-64c-1.5-1.5-3.5-2.3-5.7-2.3H144c-22.1,0-40,17.9-40,40v96h16V56c0-13.3,10.7-24,24-24h248v40
		c0,13.3,10.7,24,24,24h40v360c0,13.3-10.7,24-24,24H144c-13.3,0-24-10.7-24-24v-96h-16v96c0,22.1,17.9,40,40,40h288
		c22.1,0,40-17.9,40-40V88C472,85.9,471.2,83.8,469.7,82.3z M408,72V43.3L444.7,80H416C411.6,80,408,76.4,408,72z"/>
	<path class="st0" d="M152,64h16v16h-16V64z"/>
	<path class="st0" d="M184,64h48v16h-48V64z"/>
	<path class="st0" d="M152,96h80v16h-80V96z"/>
	<path class="st0" d="M280,344c0-13.3-10.7-24-24-24c-13.3,0-24,10.7-24,24c0,3.1,0.6,6.2,1.8,9l-38.3,34.1c-3.5-2-7.5-3.1-11.5-3.1
		c-13.3,0-24,10.7-24,24s10.7,24,24,24s24-10.7,24-24c0-3.1-0.6-6.2-1.8-9l38.3-34.1c8.9,5.1,20,3.8,27.5-3.1l48.4,26.4
		c-0.2,1.3-0.4,2.5-0.4,3.8c0,13.3,10.7,24,24,24s24-10.7,24-24c0-5.6-2-10.9-5.6-15.2l24.8-41.3c1.6,0.3,3.2,0.5,4.8,0.5
		c13.3,0,24-10.7,24-24s-10.7-24-24-24s-24,10.7-24,24c0,5.6,2,10.9,5.6,15.2l-24.8,41.3c-7.4-1.5-15.1,0.6-20.7,5.7l-48.4-26.4
		C279.8,346.5,280,345.3,280,344L280,344z M184,416c-4.4,0-8-3.6-8-8s3.6-8,8-8s8,3.6,8,8S188.4,416,184,416z M256,352
		c-4.4,0-8-3.6-8-8s3.6-8,8-8s8,3.6,8,8S260.4,352,256,352z M392,304c4.4,0,8,3.6,8,8s-3.6,8-8,8s-8-3.6-8-8S387.6,304,392,304z
		 M344,384c4.4,0,8,3.6,8,8s-3.6,8-8,8s-8-3.6-8-8S339.6,384,344,384z"/>
	<path class="st0" d="M328,160h96v16h-96V160z"/>
	<path class="st0" d="M184,160h128v16H184V160z"/>
	<path class="st0" d="M328,192h96v16h-96V192z"/>
	<path class="st0" d="M184,192h128v16H184V192z"/>
	<path class="st0" d="M328,224h96v16h-96V224z"/>
	<path class="st0" d="M184,224h128v16H184V224z"/>
	<path class="st0" d="M328,256h96v16h-96V256z"/>
	<path class="st0" d="M184,256h128v16H184V256z"/>
	<path class="st0" d="M156.4,215.3c6.8-2,11.6-8.2,11.6-15.3v-16c0-8.8-7.2-16-16-16H56c-8.8,0-16,7.2-16,16v16
		c0,7.1,4.8,13.4,11.6,15.3L80,250.8v10.4l-28.4,35.5c-6.8,2-11.6,8.2-11.6,15.3v16c0,8.8,7.2,16,16,16h96c8.8,0,16-7.2,16-16v-16
		c0-7.1-4.8-13.4-11.6-15.3L128,261.2v-10.4L156.4,215.3z M56,184h96v16H56V184z M56,328v-16h96v16H56z M115.5,271.2l19.9,24.8H72.6
		l19.8-24.8c2.3-2.8,3.5-6.4,3.5-10v-10.4c0-3.6-1.2-7.2-3.5-10L72.6,216h62.7l-19.8,24.8c-2.3,2.8-3.5,6.4-3.5,10v10.4
		C112,264.8,113.2,268.4,115.5,271.2z"/>
</g>
</svg>
